HIERARCHY
ROOT Spine
{
    OFFSET 0.0 0.0 -0.0
    CHANNELS 6 Xposition Yposition Zposition Zrotation Xrotation Yrotation
    JOINT ShoulderCenter
    {
        OFFSET 0.0 24.553037643432617 0.0
        CHANNELS 3 Zrotation Xrotation Yrotation
        JOINT LeftShoulder
        {
            OFFSET 16.703350067138672 0.0 0.0
            CHANNELS 3 Zrotation Xrotation Yrotation
            JOINT LeftElbow
            {
                OFFSET 27.274127960205078 0.0 0.0
                CHANNELS 3 Zrotation Xrotation Yrotation
                JOINT LeftHand
                {
                    OFFSET 29.084383010864258 0.0 0.0
                    CHANNELS 3 Zrotation Xrotation Yrotation
                    End Site
                    {
                        OFFSET 11.633752822875977 0.0 0.0
                    }
                }
            }
        }
        JOINT RightShoulder
        {
            OFFSET -16.703350067138672 0.0 0.0
            CHANNELS 3 Zrotation Xrotation Yrotation
            JOINT RightElbow
            {
                OFFSET -27.274127960205078 0.0 0.0
                CHANNELS 3 Zrotation Xrotation Yrotation
                JOINT RightHand
                {
                    OFFSET -29.084383010864258 0.0 0.0
                    CHANNELS 3 Zrotation Xrotation Yrotation
                    End Site
                    {
                        OFFSET -11.633752822875977 0.0 0.0
                    }
                }
            }
        }
        End Site
        {
            OFFSET 0.0 9.821213722229004 0.0
        }
    }
    JOINT LeftHip
    {
        OFFSET 22.047394091811324 -22.047394091811324 0.0
        CHANNELS 3 Zrotation Xrotation Yrotation
        JOINT LeftKnee
        {
            OFFSET 0.0 -35.79312515258789 0.0
            CHANNELS 3 Zrotation Xrotation Yrotation
            JOINT LeftFoot
            {
                OFFSET 0.0 -44.47649383544922 0.0
                CHANNELS 3 Zrotation Xrotation Yrotation
                End Site
                {
                    OFFSET 0.0 0.0 17.790599822998047
                }
            }
        }
    }
    JOINT RightHip
    {
        OFFSET -22.047394091811324 -22.047394091811324 0.0
        CHANNELS 3 Zrotation Xrotation Yrotation
        JOINT RightKnee
        {
            OFFSET 0.0 -35.79312515258789 0.0
            CHANNELS 3 Zrotation Xrotation Yrotation
            JOINT RightFoot
            {
                OFFSET 0.0 -44.47649383544922 0.0
                CHANNELS 3 Zrotation Xrotation Yrotation
                End Site
                {
                    OFFSET 0.0 0.0 17.790599822998047
                }
            }
        }
    }
}
MOTION
Frames: 12
Frame Time: 0.03333333333333333
5.723204612731934 14.954419136047363 -315.2666931152344 -3.2743363552313425 19.97296496444076 -2.2360821120073835 4.167428954575613e-07 -1.404386410058484e-06 -179.41202865667464 -80.5669858088888 -27.026604205194513 -3.096689204503613 4.0664686376851095e-06 -2.015404133483447e-06 42.4450789847463 2.758691436281349e-32 -3.975693351829395e-15 7.951386703658791e-16 83.78631995726312 -40.765251716283515 4.573880357781428 1.9005964301657934e-06 -3.199770528288865e-07 -25.307174118585436 -8.827812596100317e-32 3.1805546814635168e-15 3.1805546814635168e-15 3.5580004057654437 -2.7627664464878587 -23.69927433776455 -5.402393638565575 -12.21448736980421 31.760326237184 0.0 0.0 -1.987846675914698e-16 -9.495733799854529 -27.787823380279814 -76.19706526147841 -17.479038561263906 14.650589027402287 79.98283344217208 3.975693351829396e-16 3.4483642953516864e-34 9.93923337957349e-17
6.263300895690918 14.40565013885498 -315.106201171875 -4.874766188675674 23.48652150593652 -2.8079012416235134 -4.761324558022916e-07 3.69686635791316e-09 -179.95448349665355 -79.67092494507507 -26.310925938876906 1.3440354004979052 -2.584918629889594e-06 -3.842005914506538e-06 46.93204655396787 -7.951386703658792e-15 -3.975693351829398e-16 1.987846675914698e-15 78.42179291648979 -46.815991020087644 0.2536800925431553 5.048780489043018e-06 -1.7014325275021343e-06 -25.912909519808974 -1.5902773407317582e-15 -6.3611093629270335e-15 3.1805546814635168e-15 5.214612294169431 -7.209573555820975 -10.258537239889376 -8.308631418098226 -9.938870811989185 24.964950729447494 1.5902773407317584e-15 5.517382872562698e-33 3.975693351829396e-16 -8.572948872789826 -38.04598377951169 -80.60317032576944 -30.221559182163507 13.419012541236004 95.42463526363285 3.975693351829396e-16 3.1308585145656493e-15 2.981770013872047e-16
6.703262805938721 13.440130233764648 -315.31158447265625 -4.689664879702196 24.804561881328617 -3.2592389411146376 2.995073045822308e-07 1.8869148146276491e-06 179.22911557614833 -77.07914879599468 -30.07165140274854 5.932665467575138 -4.788633773409069e-06 4.293501774540079e-06 47.04270752393273 1.5902773407317582e-15 5.517382872562698e-33 3.9756933518293955e-16 79.10458670906505 -41.416463848018495 -0.5765516923333099 -3.0845816913034363e-06 4.635704902466623e-07 -28.072695866785537 -7.95138670365879e-15 -3.1805546814635168e-15 9.541664044390547e-15 4.721195042214911 -10.76207811574258 12.026911425266531 -10.579688673990445 -4.002738108526638 9.478802238996908 -4.965644585306429e-32 1.590277340731758e-15 3.578124016646456e-15 -11.108584497163651 -48.325558283608196 -85.31414184282737 -38.594126553683616 16.917727680194677 84.52486090055773 0.0 0.0 1.4908850069360235e-16
7.013739585876465 12.620550155639648 -315.3022155761719 -5.404548807871035 27.489289718601338 -3.0177729730073244 -1.991143120427939e-07 -3.4894029423021628e-06 178.89532607476306 -74.69352735438639 -29.838510832538883 13.192268854120305 -2.6859567793636073e-06 -1.994684872274055e-06 41.90988293068369 -3.1805546814635164e-15 0.0 0.0 77.61955492974339 -42.299450302168104 -3.270482458317665 -4.867920075013274e-07 6.0455324448871505e-06 -28.00956102130301 8.827812596100317e-32 -3.180554681463516e-15 3.180554681463516e-15 4.890419828509418 -15.554655145816724 28.779299931196533 -9.182126279514787 0.6719229047580949 -1.5935391350943064 0.0 0.0 2.981770013872047e-16 -17.60494689851199 -62.68744747236767 -93.9772617480063 -49.54057914239173 20.454342708417958 77.79980702122643 -3.975693351829396e-16 -4.969616689786745e-17 5.715059193254756e-16
7.150579929351807 11.65093994140625 -315.5586853027344 -5.271840190871303 28.598730120553885 -5.056162236918471 -6.680333448849763e-07 -1.0064586891277141e-06 179.89785904652723 -72.97831258829575 -28.786825602110973 18.52607661243318 -1.467579651326941e-06 -1.9092931486950183e-06 40.262384074855674 2.5842006786891076e-15 3.975693351829397e-16 3.578124016646457e-15 78.85085816900428 -37.301567833348265 -3.458533953499208 -2.2406961335341515e-07 -5.287856583448166e-07 -27.252350172813767 7.951386703658793e-15 3.1805546814635176e-15 -2.2069531490250793e-31 4.216702020960506 -17.545632934195016 35.057670221751074 -7.0209413104609455 1.3614441769849643 -3.2507307217512404 -1.5902773407317582e-15 5.931186588004901e-32 -4.2738703532166e-15 -19.559396279806045 -70.72570394588325 -95.3099780208014 -52.28197068595933 24.538947381759208 66.46950709237932 6.1423989010951915e-34 4.969616689786745e-17 -1.4163407565892223e-15
7.105284690856934 10.869589805603027 -315.60369873046875 -5.1339115144287595 31.446838375867717 -5.114503064617843 1.3237913809645217e-07 3.326911007567148e-06 -178.5321224117414 -71.20343310857207 -25.673378006818655 23.634848910180917 2.2020222987554713e-06 5.113780533688262e-06 39.67595743294026 -9.14409470920761e-15 -3.4897446668959066e-31 4.373262687012335e-15 76.07043478978042 -39.93450640456284 -9.844139847297185 -1.042663800760752e-06 8.190873547686845e-07 -24.124087139226024 -3.1805546814635168e-15 1.7655625192200634e-31 -6.3611093629270335e-15 3.725751238465684 -21.108117460795835 41.05807323072987 -5.215590389853327 0.031988837183394986 -0.07531712785600414 0.0 0.0 1.7890620083232284e-15 -54.38290374139265 -81.99278778031137 -130.18017022819572 -60.1698433432813 28.457208151382204 61.306795353691896 0.0 0.0 1.6399735076296259e-15
7.015377998352051 9.432645797729492 -316.2118835449219 -5.720952146317544 33.06412642511414 -5.823939173066121 -3.9363053094610033e-08 2.1011567052486942e-06 -177.9118348013841 -69.82659867856395 -24.077451714000393 29.664322026891274 -1.124660208380444e-06 1.3668614551648005e-06 34.36156530305974 -7.156248033292914e-15 -3.975693351829394e-16 -4.373262687012336e-15 73.11110633492822 -42.47093274751243 -13.71796090507608 2.7102178834734746e-06 -1.540074709515273e-06 -21.976934604165145 1.5902773407317584e-15 -3.1805546814635168e-15 6.3611093629270335e-15 4.259134929832043 -23.148621275431044 45.29398113893142 -4.35051116958316 -0.5906811671493751 1.3281809098706134 -7.951386703658792e-16 -1.9878466759146985e-16 9.34287937679908e-15 -143.66178838031578 -81.92424776334097 141.7355380889379 -65.62237183708213 32.740262460527596 55.236155190443526 7.951386703658794e-16 -1.275894789280124e-32 -1.838758175221096e-15
7.509087562561035 12.203049659729004 -321.41290283203125 -5.307746418300851 47.27503476017203 -0.38851743481084783 -1.9900270147393333e-07 1.621790938412251e-06 178.47379702146145 -64.47718870628162 -16.00830083391466 50.057895176416906 -2.18558235960938e-06 -5.247710193701142e-06 28.88292057537426 -3.1805546814635164e-15 3.975693351829395e-16 1.5902773407317582e-15 44.02876926685384 -52.10015715054693 -47.475033899049414 1.6691513092465422e-06 1.1381865818785145e-06 -18.98777450878118 6.361109362927033e-15 6.361109362927033e-15 -3.531125038440127e-31 2.2849185785894344 -63.04751874644095 73.75246959472845 23.06732184282183 9.066926217346166 -12.55159383034443 -1.9878466759146977e-16 -1.5345221114315003e-32 8.845917707820405e-15 -165.7350272183383 -67.98055288090703 124.86727498359063 -54.145834712865415 35.26693916327599 27.146747612490326 0.0 0.0 2.708441095933776e-15
7.506812572479248 11.994039535522461 -321.3829040527344 -6.149888720465399 47.78442147279774 -0.2477581652610947 3.429161902609369e-07 1.0989031710064922e-06 178.14801521468036 -59.6626794530606 -18.709061967183732 53.58047516024806 -4.025529348054515e-06 -2.4338966456166456e-06 27.072530378330683 0.0 0.0 -2.3854160110976376e-15 47.95858401360237 -50.645229298458055 -44.8738909127583 6.708164029855606e-07 -8.225573469460271e-07 -18.292754881149463 0.0 0.0 -6.3611093629270335e-15 4.671520779422598 -51.707426444567 73.55871893355805 4.644176493053183 6.46214509819214 -7.080551883674051 0.0 0.0 2.9817700138720468e-15 -169.34515133872654 -57.375413462132215 122.44439474842555 -67.05309026924985 39.756173898956185 32.6346515431269 0.0 0.0 1.9816346550524645e-15
8.080259323120117 11.41077995300293 -321.08758544921875 -7.515612498273008 50.032309501559645 -0.8622839726615668 4.009055034529813e-07 -8.197734953529645e-08 177.54358606511704 -4.028290713582822 -31.18424632523094 89.264098228539 -3.1770704390352896e-06 -2.7884307039329114e-06 11.4711821715558 5.29668755766019e-31 9.54166404439055e-15 -6.3611093629270335e-15 55.261630196589195 -42.32921316625049 -39.61608008392386 -1.5579771294261e-07 8.535497374336086e-06 -18.14739834540091 3.1805546814635176e-15 -3.1805546814635176e-15 8.827812596100317e-32 3.3815283711495625 -66.21369516492526 73.47382028897327 23.968273526319646 7.582321028107133 -10.20780515892401 -6.957463365701443e-16 -4.9696166897867443e-17 -1.1554358803754182e-15 -170.26486323676608 -56.47485700944566 119.46636291446913 -58.15884437491183 42.01309858284241 25.51799709047525 2.758691436281349e-33 1.5902773407317584e-15 -1.987846675914698e-16
8.171266555786133 10.720799446105957 -321.21209716796875 -6.784225887870422 50.231424353061044 -1.8316411906268713 8.442903893817188e-07 1.4120912617251444e-06 179.3428241636087 -37.15694631211128 -25.672477322327325 70.45945027152005 3.2077464220916475e-06 1.1868901950293411e-06 20.23632467019426 -1.5902773407317584e-15 4.4139062980501586e-32 -3.1805546814635168e-15 61.911233733025774 -36.14925196791388 -36.96121646398505 2.163322215504341e-06 4.434731492752005e-06 -19.972325132848088 1.5902773407317584e-15 3.1805546814635168e-15 -4.4139062980501586e-32 11.77704441125828 -63.141259539234724 83.18458989192074 20.160268129849378 12.99882307815536 -16.81674299806026 0.0 0.0 2.0872390097104334e-15 -174.0756115997918 -55.78800041840015 115.84433260045196 -57.48528020443523 39.6196232759828 22.423080180824456 0.0 0.0 -2.882377680076313e-15
8.419733047485352 9.788272857666016 -321.88079833984375 -5.326284591441611 51.07746428902447 -3.286339471854552 7.68458206173791e-08 -2.717320542818511e-06 179.5608305069528 1.3644785165731665 -29.32392894683747 92.08535659661581 -1.1669091584742868e-06 9.158428624543541e-07 10.898878742168796 3.1805546814635176e-15 -8.827812596100317e-32 -3.1805546814635176e-15 57.24264243966946 -37.61978493391433 -43.01599435130359 3.948731736488533e-06 -5.536872868655771e-06 -18.20879519526724 -3.1805546814635168e-15 0.0 0.0 15.921410874028753 -63.29089993607408 88.34611016535652 18.345143833963316 16.712163671760145 -19.93104594597615 1.5902773407317584e-15 1.5902773407317584e-15 -6.957463365701443e-16 -176.44591754545223 -53.75559762879973 113.79158619609689 -57.86939176333096 38.51317701608905 20.481948734138385 0.0 0.0 -9.939233379573488e-16
